<svg width="410" height="410" viewBox="0 0 410 410" fill="none" xmlns="http://www.w3.org/2000/svg">
<path d="M205 0C318.218 0 410 91.7816 410 205C410 318.218 318.218 410 205 410C91.7816 410 0 318.218 0 205C0 91.7816 91.7816 0 205 0Z" fill="#D9D9D9"/>
<path fill-rule="evenodd" clip-rule="evenodd" d="M204.618 16C309.172 16.0001 394.236 101.004 394.236 205.478C394.236 309.951 309.172 394.946 204.618 394.946C100.064 394.946 15 309.952 15 205.478C15.0002 101.004 100.064 16 204.618 16ZM210.508 357.255C208.648 355.405 205.888 354.545 203.288 355.075C202.778 355.175 202.278 355.325 201.788 355.525C201.308 355.725 200.848 355.975 200.408 356.265C199.978 356.555 199.568 356.885 199.198 357.255C197.708 358.745 196.848 360.805 196.848 362.915C196.848 363.435 196.908 363.965 197.008 364.475C197.108 364.984 197.268 365.495 197.468 365.975C197.668 366.455 197.908 366.925 198.198 367.355C198.488 367.795 198.828 368.205 199.198 368.575C199.568 368.935 199.978 369.275 200.408 369.565C200.848 369.855 201.308 370.105 201.788 370.305C202.278 370.505 202.778 370.655 203.288 370.755C203.808 370.865 204.328 370.915 204.858 370.915C205.378 370.915 205.898 370.865 206.418 370.755C206.928 370.655 207.428 370.505 207.908 370.305C208.398 370.105 208.858 369.855 209.288 369.565C209.728 369.275 210.138 368.935 210.508 368.575C210.878 368.205 211.208 367.795 211.508 367.355C211.788 366.925 212.038 366.455 212.238 365.975C212.438 365.495 212.598 364.984 212.698 364.475C212.798 363.965 212.848 363.435 212.848 362.915C212.848 360.805 211.998 358.745 210.508 357.255ZM99.1543 311.263C97.3043 309.403 94.5336 308.553 91.9336 309.073C91.4238 309.173 90.9241 309.333 90.4443 309.533C89.9545 309.733 89.4943 309.983 89.0645 310.263C88.6245 310.563 88.2137 310.893 87.8438 311.263C87.4738 311.633 87.1435 312.043 86.8535 312.473C86.5635 312.913 86.3143 313.373 86.1143 313.863C85.9144 314.343 85.7643 314.843 85.6543 315.353C85.5543 315.872 85.5039 316.393 85.5039 316.923C85.5039 317.443 85.5543 317.963 85.6543 318.483C85.7643 318.993 85.9144 319.493 86.1143 319.973C86.3143 320.463 86.5635 320.923 86.8535 321.363C87.1435 321.793 87.4737 322.203 87.8438 322.573C88.2138 322.943 88.6245 323.273 89.0645 323.573C89.4943 323.853 89.9545 324.103 90.4443 324.303C90.9241 324.503 91.4238 324.663 91.9336 324.763C92.4536 324.863 92.9739 324.923 93.5039 324.923C95.6039 324.923 97.6643 324.063 99.1543 322.573C99.5243 322.203 99.8643 321.793 100.154 321.363C100.444 320.923 100.684 320.463 100.884 319.973C101.084 319.493 101.244 318.993 101.344 318.483C101.444 317.963 101.504 317.443 101.504 316.923C101.504 316.393 101.444 315.872 101.344 315.353C101.244 314.843 101.084 314.343 100.884 313.863C100.684 313.373 100.444 312.913 100.154 312.473C99.8643 312.043 99.5243 311.633 99.1543 311.263ZM317.703 308.913C316.673 308.703 315.603 308.703 314.573 308.913C314.063 309.013 313.563 309.173 313.073 309.373C312.593 309.573 312.133 309.813 311.693 310.103C311.264 310.392 310.853 310.733 310.483 311.103C310.113 311.473 309.773 311.883 309.483 312.313C309.203 312.753 308.953 313.213 308.753 313.693C308.553 314.183 308.393 314.683 308.293 315.193C308.193 315.713 308.143 316.233 308.143 316.753C308.143 317.283 308.193 317.803 308.293 318.323C308.393 318.833 308.553 319.334 308.753 319.813C308.953 320.303 309.203 320.763 309.483 321.203C309.773 321.633 310.113 322.043 310.483 322.413C310.853 322.783 311.263 323.113 311.693 323.413C312.133 323.693 312.593 323.943 313.083 324.143C313.563 324.343 314.063 324.493 314.573 324.603C315.093 324.702 315.613 324.753 316.143 324.753C316.663 324.753 317.183 324.703 317.703 324.603C318.213 324.493 318.713 324.343 319.193 324.143C319.683 323.943 320.143 323.693 320.583 323.413C321.013 323.113 321.423 322.783 321.793 322.413C322.163 322.043 322.493 321.633 322.793 321.203C323.073 320.763 323.323 320.303 323.523 319.813C323.723 319.334 323.883 318.833 323.983 318.323C324.083 317.803 324.143 317.283 324.143 316.753C324.143 316.233 324.083 315.713 323.983 315.193C323.883 314.684 323.723 314.183 323.523 313.693C323.323 313.213 323.073 312.753 322.793 312.313C322.503 311.883 322.163 311.473 321.793 311.103C321.423 310.733 321.013 310.392 320.583 310.103C320.143 309.813 319.683 309.573 319.193 309.373C318.713 309.173 318.213 309.013 317.703 308.913ZM204.618 96.5527C144.515 96.5527 95.6135 145.416 95.6133 205.478C95.6133 265.54 144.515 314.402 204.618 314.402C264.72 314.402 313.622 265.539 313.622 205.478C313.622 145.416 264.721 96.5528 204.618 96.5527ZM48.8721 197.868C47.8421 197.658 46.7821 197.658 45.7422 197.868C45.2322 197.968 44.732 198.128 44.252 198.328C43.7621 198.528 43.302 198.768 42.8721 199.058C42.4322 199.348 42.0223 199.688 41.6523 200.058C40.1623 201.548 39.3115 203.608 39.3115 205.708C39.3115 206.238 39.3619 206.758 39.4619 207.278C39.5719 207.788 39.722 208.288 39.9219 208.768C40.1219 209.258 40.3721 209.718 40.6621 210.148C40.9521 210.588 41.2824 210.998 41.6523 211.368C42.0223 211.738 42.4322 212.068 42.8721 212.368C43.302 212.648 43.7621 212.898 44.252 213.098C44.732 213.298 45.2322 213.458 45.7422 213.558C46.262 213.658 46.7917 213.708 47.3115 213.708C49.4115 213.708 51.4819 212.858 52.9619 211.368C53.3318 210.998 53.672 210.588 53.9619 210.148C54.2519 209.718 54.4924 209.258 54.6924 208.768C54.8923 208.288 55.0524 207.788 55.1523 207.278C55.2523 206.758 55.3115 206.238 55.3115 205.708C55.3115 203.608 54.4519 201.538 52.9619 200.058C52.602 199.688 52.1919 199.348 51.752 199.058C51.322 198.768 50.852 198.528 50.3721 198.328C49.8821 198.128 49.382 197.968 48.8721 197.868ZM363.735 197.638C362.696 197.438 361.635 197.438 360.605 197.638C360.096 197.748 359.595 197.898 359.105 198.098C358.625 198.298 358.165 198.548 357.725 198.828C357.285 199.128 356.875 199.458 356.515 199.828C355.025 201.318 354.165 203.378 354.165 205.488C354.165 206.008 354.225 206.528 354.325 207.048C354.425 207.558 354.585 208.058 354.785 208.548C354.985 209.028 355.225 209.488 355.515 209.928C355.805 210.358 356.145 210.768 356.515 211.138C356.875 211.508 357.285 211.838 357.725 212.138C358.165 212.418 358.625 212.668 359.105 212.868C359.595 213.068 360.096 213.228 360.605 213.328C361.115 213.428 361.645 213.478 362.165 213.478C364.275 213.478 366.335 212.628 367.825 211.138C368.195 210.768 368.525 210.358 368.815 209.928C369.105 209.488 369.355 209.028 369.555 208.548C369.755 208.058 369.905 207.558 370.015 207.048C370.115 206.528 370.165 206.008 370.165 205.488C370.165 203.378 369.315 201.318 367.825 199.828C367.455 199.458 367.045 199.128 366.605 198.828C366.175 198.548 365.715 198.298 365.225 198.098C364.745 197.898 364.245 197.748 363.735 197.638ZM98.9932 88.7832C97.1333 86.9233 94.3733 86.073 91.7734 86.5928C91.2635 86.7028 90.7631 86.8528 90.2832 87.0527C89.7932 87.2527 89.3326 87.5032 88.8926 87.7832C88.4627 88.0831 88.0525 88.4133 87.6826 88.7832C87.3127 89.1531 86.9725 89.563 86.6826 90.0029C86.4027 90.4328 86.1531 90.8929 85.9531 91.3828C85.7531 91.8628 85.5932 92.363 85.4932 92.873C85.3932 93.393 85.3428 93.9134 85.3428 94.4434C85.3428 94.9632 85.3932 95.4831 85.4932 96.0029C85.5932 96.5129 85.7531 97.0129 85.9531 97.5029C86.1531 97.9828 86.4027 98.4429 86.6826 98.8828C86.9825 99.3127 87.3127 99.7229 87.6826 100.093C88.0525 100.463 88.4627 100.803 88.8926 101.093C89.3326 101.383 89.7932 101.623 90.2832 101.823C90.7631 102.023 91.2635 102.183 91.7734 102.283C92.2932 102.383 92.813 102.443 93.3428 102.443C93.8628 102.443 94.3833 102.383 94.9033 102.283C95.4131 102.183 95.9128 102.023 96.3926 101.823C96.8826 101.623 97.3432 101.383 97.7832 101.093C98.2131 100.803 98.6232 100.463 98.9932 100.093C99.3631 99.7228 99.6932 99.3127 99.9932 98.8828C100.273 98.4429 100.523 97.9828 100.723 97.5029C100.923 97.0129 101.083 96.5129 101.183 96.0029C101.283 95.4831 101.343 94.9632 101.343 94.4434C101.343 93.9134 101.283 93.393 101.183 92.873C101.083 92.3631 100.923 91.8628 100.723 91.3828C100.523 90.8929 100.273 90.4328 99.9932 90.0029C99.6932 89.563 99.3631 89.1532 98.9932 88.7832ZM321.632 88.623C319.772 86.7631 317.002 85.9127 314.412 86.4326C313.902 86.5326 313.402 86.6926 312.912 86.8926C312.432 87.0926 311.972 87.3431 311.532 87.623C311.092 87.913 310.682 88.2531 310.322 88.623C309.952 88.993 309.612 89.403 309.322 89.833C309.032 90.273 308.792 90.7329 308.592 91.2129C308.392 91.7029 308.232 92.2029 308.132 92.7129C308.032 93.2329 307.972 93.7534 307.972 94.2734C307.972 94.8032 308.032 95.323 308.132 95.8428C308.232 96.3528 308.392 96.853 308.592 97.333C308.792 97.823 309.032 98.2829 309.322 98.7129C309.612 99.1528 309.952 99.5626 310.322 99.9326C310.682 100.303 311.092 100.633 311.532 100.933C311.972 101.213 312.432 101.463 312.912 101.663C313.402 101.863 313.902 102.023 314.412 102.123C314.932 102.223 315.452 102.283 315.972 102.283C318.082 102.283 320.142 101.423 321.632 99.9326C322.002 99.5626 322.332 99.1528 322.632 98.7129C322.912 98.2829 323.162 97.823 323.362 97.333C323.562 96.853 323.712 96.3527 323.822 95.8428C323.922 95.323 323.972 94.8032 323.972 94.2734C323.972 93.7534 323.922 93.2329 323.822 92.7129C323.712 92.2029 323.562 91.7029 323.362 91.2129C323.162 90.7329 322.912 90.273 322.632 89.833C322.332 89.403 322.002 88.993 321.632 88.623ZM206.188 40.4414C205.158 40.2314 204.088 40.2314 203.058 40.4414C202.548 40.5414 202.048 40.6908 201.568 40.8906C201.078 41.0906 200.618 41.3409 200.178 41.6309C199.748 41.9208 199.338 42.2511 198.968 42.6211C198.598 42.991 198.268 43.4009 197.968 43.8408C197.688 44.2707 197.438 44.7408 197.238 45.2207C197.038 45.7006 196.888 46.2108 196.778 46.7207C196.678 47.2307 196.628 47.7613 196.628 48.2812C196.628 48.8011 196.678 49.3309 196.778 49.8408C196.888 50.3508 197.038 50.8608 197.238 51.3408C197.438 51.8207 197.688 52.2908 197.968 52.7207C198.268 53.1607 198.598 53.5714 198.968 53.9414C199.338 54.3013 199.748 54.6407 200.178 54.9307C200.618 55.2207 201.078 55.4709 201.568 55.6709C202.048 55.8708 202.548 56.0211 203.058 56.1211C203.578 56.2311 204.098 56.2812 204.628 56.2812C205.148 56.2812 205.668 56.2311 206.188 56.1211C206.698 56.0211 207.198 55.8708 207.678 55.6709C208.168 55.4709 208.628 55.2207 209.068 54.9307C209.498 54.6407 209.908 54.3013 210.278 53.9414C210.648 53.5714 210.988 53.1607 211.278 52.7207C211.558 52.2908 211.808 51.8207 212.008 51.3408C212.208 50.8608 212.368 50.3508 212.468 49.8408C212.568 49.3309 212.628 48.8011 212.628 48.2812C212.628 47.7613 212.568 47.2307 212.468 46.7207C212.368 46.2108 212.208 45.7006 212.008 45.2207C211.808 44.7408 211.558 44.2707 211.278 43.8408C210.988 43.4009 210.648 42.991 210.278 42.6211C209.908 42.2511 209.498 41.9208 209.068 41.6309C208.628 41.3409 208.168 41.0906 207.678 40.8906C207.198 40.6908 206.698 40.5414 206.188 40.4414Z" fill="black"/>
<path d="M204.618 112.478C255.98 112.478 297.618 154.115 297.618 205.478C297.618 256.84 255.981 298.477 204.618 298.478C153.256 298.478 111.618 256.84 111.618 205.478C111.618 154.115 153.256 112.478 204.618 112.478Z" fill="black"/>
</svg>
